<svg xmlns="http://www.w3.org/2000/svg" width="53.101" height="98.447" viewBox="0 0 53.101 98.447">
  <g id="aeropress" transform="translate(0.5 0.5)" style="mix-blend-mode: normal;isolation: isolate">
    <path id="Union_4" data-name="Union 4" d="M-2037.616-434.115a13.38,13.38,0,0,1-5.441-1.445,14.06,14.06,0,0,1-6.583-6.773c-1.294-2.683-1.313-2.74-1.313-16.42v-12.215h-1.18c-1.617,0-2.511-.285-3.083-.97-.475-.552-.494-.685-.494-2.835s.019-2.282.494-2.834a2.848,2.848,0,0,1,1.18-.78,35.433,35.433,0,0,1,4.376-.191h3.653V-493.4c0-8.551,0-13.876,0-14.521s.075-1.328,1-1.328h2.611v-8.281s-.063-.761,1.443-.761c1.288,0,1.373.761,1.373.761l.057,8.319h13.87v-19.406h-13.87l-.057,6.079s0,.694-1.373.694c-1.438,0-1.443-.694-1.443-.694v-6.079h-1.313c-1.636,0-1.9-.1-2.207-.838a1.53,1.53,0,0,1,.418-1.788c.247-.171,3.12-.228,12.842-.228h12.539l.456.475a1.219,1.219,0,0,1,0,1.9c-.4.419-.628.476-1.807.476h-1.332v19.406h2.426c.932,0,.932.7.932.7l.066,8.815v8.733s-.008.655-1.363.655-1.422-.655-1.422-.655l-.031-7.667-.057-7.725h-20.91v27.778h20.91l.057-4.109c.058-4.053.031-4.053.031-4.053s.078-.7,1.422-.7,1.363.7,1.363.7v8.143l4.072.058c3.767.057,4.128.095,4.623.456.895.647,1.2,1.5,1.2,3.31,0,2.778-.723,3.615-3.235,3.767l-1.522.1v1.427l2.816.058c2.625.076,2.854.114,3.919.627a7.157,7.157,0,0,1,3.311,3.311l.514,1.084.057,5.631c.057,5.308.038,5.689-.343,6.7a6.771,6.771,0,0,1-4.357,4.129,10.759,10.759,0,0,1-3.652.38h-2.455v.7a10.341,10.341,0,0,1-.3,1.94,14.511,14.511,0,0,1-9.874,10.293,14.874,14.874,0,0,1-3.711.513c-.689.029-1.182.048-1.55.048-1.055.031-2.182.044-3.251.044C-2035.092-434.023-2036.869-434.067-2037.616-434.115Zm23.383-24.391v8.087h2.15a16.148,16.148,0,0,0,2.892-.21,4.969,4.969,0,0,0,2.664-2.683c.057-.342.094-2.911.057-5.689l-.057-5.061-.553-.78a4.129,4.129,0,0,0-1.5-1.274c-.875-.437-1.179-.475-3.31-.475h-2.34Zm-29.591,5.2a15.383,15.383,0,0,0,6.958.6,17.83,17.83,0,0,0,3.092-.849,26.065,26.065,0,0,1,5.125-1.643c2.12-.434,2.81-.556,5.141-.86a23.025,23.025,0,0,1,6.414.357c0-1.111.005-2.344.007-3.714v-11.549h-1.713c-1.922,0-1.674-.209-2.093,1.808a3.3,3.3,0,0,1-1.788,2.549c-.78.381-1.084.4-9.97.4-9.855,0-9.931,0-10.825-.97a5.253,5.253,0,0,1-1.122-2.8l-.133-.99h-3.387l.057,12.6.019,4.118A21.586,21.586,0,0,1-2043.824-453.306Zm2.1-16.863a4.167,4.167,0,0,0,.228.951c.039.1,4.015.152,8.828.152h8.733l.191-.494a2.82,2.82,0,0,0,.19-.951v-.457h-18.3Zm-11.13-3.974v.951l20.225-.039,20.075-.057h.13v-2.884l-13.046-.037-7.159-.021h-.284l-19.94-.038Zm19.821,17a1.881,1.881,0,0,1-.946-1.724,1.734,1.734,0,0,1,.176-.9,7.938,7.938,0,0,1,1.431-2.175c.222-.07.439.032.65.3a10.075,10.075,0,0,1,1.123,1.825,1.812,1.812,0,0,1,.205.954,1.56,1.56,0,0,1-.2.878,1.729,1.729,0,0,1-.822.89,1.232,1.232,0,0,1-.775.166h-.119A1.075,1.075,0,0,1-2033.035-457.141Zm-5.378-3.37a1.164,1.164,0,0,1-.665-1.086,1.007,1.007,0,0,1,.124-.57,5.027,5.027,0,0,1,1.006-1.371.442.442,0,0,1,.457.188,6.26,6.26,0,0,1,.79,1.151,1.047,1.047,0,0,1,.144.6.9.9,0,0,1-.14.553,1.142,1.142,0,0,1-.577.561.952.952,0,0,1-.545.1h-.088A.816.816,0,0,1-2038.414-460.511Zm11.238-.931a1.281,1.281,0,0,1-.629-1.169,1.207,1.207,0,0,1,.117-.612,5.413,5.413,0,0,1,.951-1.475c.149-.048.293.022.433.2a6.9,6.9,0,0,1,.746,1.237,1.25,1.25,0,0,1,.137.647,1.069,1.069,0,0,1-.133.6,1.16,1.16,0,0,1-.545.6.812.812,0,0,1-.516.112h-.082A.7.7,0,0,1-2027.175-461.443Z" transform="translate(2055.71 531.47)" fill="#532c0e" stroke="#532c0e" stroke-linecap="round" stroke-linejoin="round" stroke-width="1"/>
  </g>
</svg>
