<svg xmlns="http://www.w3.org/2000/svg" width="62.19" height="95.894" viewBox="0 0 62.19 95.894">
  <g id="chemex" transform="translate(1.017 1)" style="mix-blend-mode: normal;isolation: isolate">
    <path id="Union_2" data-name="Union 2" d="M-1644.025-439.659h-20.737l-1.468-.514a16.892,16.892,0,0,1-2.7-1.34,11.489,11.489,0,0,1-4.643-12.552c.166-.551,3.267-6.882,6.9-14.057,5.763-11.434,6.552-13.1,6.295-13.306a2.712,2.712,0,0,1-.807-2c0-.569.367-1.468,1.542-3.817,1.6-3.175,2.2-4.717,2.4-6.185l.129-.826h-.918c-.788,0-.991-.073-1.3-.477a1.867,1.867,0,0,1-.386-.991,1.813,1.813,0,0,1,1.78-1.468h.661l-.128-.771c-.184-1.174-.973-2.9-2.753-6.019-1.945-3.395-2.128-4.184-1.3-5.413.367-.514.459-.789.33-1.009-.092-.148-2.605-4.57-5.579-9.818-5.175-9.157-5.395-9.58-5.377-10.48a2.824,2.824,0,0,1,1.615-2.569c.863-.367,52.137-.385,53.036,0a2.756,2.756,0,0,1,1.652,2.569c.018.9-.2,1.322-5.377,10.48-2.973,5.248-5.487,9.671-5.579,9.818-.128.2-.036.495.312.991.807,1.193.679,1.871-.826,4.514a36.745,36.745,0,0,0-3.174,6.606l-.239,1.01.825.11c2.257.275,2.2,2.918-.073,2.918h-.844l.129.863c.2,1.45.77,2.881,2.385,6.129,1.193,2.368,1.561,3.267,1.561,3.836a2.49,2.49,0,0,1-.844,1.982c-.257.147.7,2.147,6.313,13.268,3.633,7.213,6.754,13.562,6.918,14.113a11.5,11.5,0,0,1-7.616,13.984l-1.376.422Zm-16.479-34.189c-10.718,21.1-10.589,20.811-10.589,22.81q0,.146.005.291l3.514-8.136c2.785-4.941,4.156-9.529,4.42-9.62.569-.2,3.282-.2,8.221,0a85.969,85.969,0,0,1,12.173,1.272,74.087,74.087,0,0,0,13.229,1.417,9.927,9.927,0,0,0,4.581-1.191c.3-.15.588-.3.846-.439-1.023-2.017-2.193-4.321-3.532-6.954l-3.3-6.46h-2.716l.385.771c.22.44.7,1.247,1.047,1.8.788,1.211.862,2.092.239,2.587a1.579,1.579,0,0,1-2.038-.055,25.612,25.612,0,0,1-2.367-3.964l-.569-1.139h-13.929l-.972,1.854a27.982,27.982,0,0,1-1.616,2.7c-.569.752-.752.863-1.395.918-1.523.11-1.871-1.192-.771-2.9.348-.551.826-1.358,1.046-1.8l.386-.771h-2.735Zm40.238,16.717,3.454,6.132a8.242,8.242,0,0,0-.108-1.268c-.165-1.061-.775-2.483-5.081-11.019A19.184,19.184,0,0,0-1620.266-457.132Zm-19.648-36.243-.477.862.789.881a22.126,22.126,0,0,1,3.432,5.487l1.138,2.349h2.624a10.235,10.235,0,0,0,2.569-.147c-.018-.074-.606-1.211-1.284-2.551a22.138,22.138,0,0,1-2.441-6.717l-.129-1.047h-5.744Zm-5.726,3.211a17.991,17.991,0,0,0-3.138,4.662l-.844,1.706h11.4l-1.028-2a18.09,18.09,0,0,0-3.56-4.9,2.7,2.7,0,0,0-1.193-.33l-.131,0C-1644.695-491.028-1644.9-490.9-1645.639-490.163Zm-8.57-3.651c0,1.321-.973,4.184-2.386,6.955-.807,1.578-1.468,2.918-1.468,2.973a18.068,18.068,0,0,0,2.624.092h2.624l.881-1.927a24.106,24.106,0,0,1,3.56-5.781l.9-1.01-.477-.862-.477-.881h-5.781Zm9.193-3.083a1.243,1.243,0,0,0-.569,1.174,1.626,1.626,0,0,0,2.368,1.579,1.633,1.633,0,0,0,.366-2.753,1.938,1.938,0,0,0-1.083-.477A1.943,1.943,0,0,0-1645.016-496.9Zm5.084-1.065.422.771h5.854l.11-.514c.661-2.9.936-3.6,2.9-7.066a24.384,24.384,0,0,0,1.4-2.679c0-.147-3.946-.2-14.645-.2-8.056,0-14.7.055-14.755.11a15.645,15.645,0,0,0,1.376,2.68,22.081,22.081,0,0,1,2.771,6.477l.238,1.1,2.955.055,2.955.037.312-.588a4.565,4.565,0,0,1,4.125-2.488A4.488,4.488,0,0,1-1639.931-497.963Zm-29.143-32.5c.018.092,2.515,4.569,5.579,9.965l5.56,9.818h27.986l5.579-9.818c3.064-5.4,5.56-9.873,5.578-9.965,0-.074-3.909-.129-8.68-.129h-8.681l-1.083,1.872c-1.321,2.312-2.386,3.468-3.744,4.129a5.039,5.039,0,0,1-2.955.513,5.042,5.042,0,0,1-2.955-.513c-1.357-.661-2.422-1.817-3.743-4.129l-1.083-1.872h-8.68C-1665.166-530.591-1669.074-530.536-1669.074-530.463Zm21.123.55c.238.386.606,1.01.844,1.377a3.889,3.889,0,0,0,5.083,1.174c.715-.422,1.266-1.1,2.386-3.01.11-.166-.808-.221-4.295-.221h-4.441Z" transform="translate(1674 533.553)" fill="#532c0e" stroke="#532c0e" stroke-width="2"/>
  </g>
</svg>
