<svg id="coffee-beans" xmlns="http://www.w3.org/2000/svg" width="17.519" height="17.528" viewBox="0 0 17.519 17.528">
  <path id="Path_29" data-name="Path 29" d="M185.048-511.989a6.907,6.907,0,0,0-1.733.373,7.789,7.789,0,0,0-3.959,3.254c-.3.49-.466.839-.414.853.024.007.271.065.545.134a8.347,8.347,0,0,1,2.524,1.113l.356.236.452-.229a5.735,5.735,0,0,1,.863-.36,7.819,7.819,0,0,0,2.976-1.3,8.131,8.131,0,0,0,1.5-1.685c.356-.476.654-.863.661-.853a3.206,3.206,0,0,1-.055.421,5.657,5.657,0,0,1-3.028,4.384,11.988,11.988,0,0,1-1.637.565,3.365,3.365,0,0,0-.473.164,1.834,1.834,0,0,0,.2.243,8.7,8.7,0,0,1,1.956,3.819c.024.113.048.226.055.25a2.49,2.49,0,0,0,.887-.432,7.317,7.317,0,0,0,3.586-6.607,4.644,4.644,0,0,0-2.439-3.788A5.474,5.474,0,0,0,185.048-511.989Z" transform="translate(-172.814 512.01)" fill="#532c0e"/>
  <path id="Path_30" data-name="Path 30" d="M4.578-351.545a4.677,4.677,0,0,0-3.689,2.432,5.528,5.528,0,0,0-.384,3.874,7.7,7.7,0,0,0,3.237,4.518A6.544,6.544,0,0,0,8.7-339.66a4.593,4.593,0,0,0,3.384-3.031,5.745,5.745,0,0,0,.062-3.288,7.45,7.45,0,0,0-1.391-2.74,10.152,10.152,0,0,0-1.37-1.343,7.5,7.5,0,0,0-3.319-1.449A8.415,8.415,0,0,0,4.578-351.545ZM2.3-349.432a12.521,12.521,0,0,0,1.123,1.421,5.636,5.636,0,0,0,1.014.839,10.263,10.263,0,0,0,2.535.986,5.515,5.515,0,0,1,3.833,4.774,1.958,1.958,0,0,1,.041.336,6.119,6.119,0,0,1-.411-.51l-.7-.918a6.877,6.877,0,0,0-1.264-1.278,7.21,7.21,0,0,0-2.312-1,6.009,6.009,0,0,1-1.86-.791,5.5,5.5,0,0,1-2.223-3.206,6.3,6.3,0,0,1-.247-1.26C1.844-350.038,2.053-349.764,2.3-349.432Z" transform="translate(-0.324 357.06)" fill="#532c0e"/>
</svg>
