<svg xmlns="http://www.w3.org/2000/svg" width="79.569" height="90.351" viewBox="0 0 79.569 90.351">
  <path id="Union_3" data-name="Union 3" d="M-1825.441-452.214h-24.414l-1.345-.5a12.076,12.076,0,0,1-6.357-5.141,11.768,11.768,0,0,1-.517-10.761c.3-.607,3.446-5.859,7-11.682l6.467-10.576v-7.9l-1.842-2.211c-2.046-2.451-2.211-2.93-1.382-3.74a1.351,1.351,0,0,1,2.083.055c.276.3,1.124,1.29,1.879,2.211l1.382,1.7h22.037l.442.461a1.435,1.435,0,0,1,.461,1.013,1.437,1.437,0,0,1-.461,1.013l-.442.46h-21.208v5.9h32.43v-5.9h-1.75c-1.622,0-1.806-.037-2.211-.46a1.354,1.354,0,0,1,0-2.027c.424-.443.553-.461,2.616-.461h2.174l1.732-2.12c1.272-1.529,1.88-2.137,2.267-2.211a1.481,1.481,0,0,1,1.714,1.7,14.182,14.182,0,0,1-1.843,2.542l-1.75,2.083v7.9l6.468,10.576c3.556,5.823,6.707,11.075,7,11.682a11.765,11.765,0,0,1-.516,10.761,12.079,12.079,0,0,1-6.357,5.141l-1.346.5Zm-24.34-3.187c.747.183.5.121.249.06l-.249-.06Zm24.544-11.461a66.628,66.628,0,0,0,16.841,1.585c2.138-.055,4.532-.185,5.343-.3,1.677-.184,7.7-1.123,7.794-1.2.13-.111-.774-1.64-6.946-11.738l-6.376-10.466H-1842.3l-6.375,10.466c-6.6,10.779-6.873,11.258-6.763,11.369a16.849,16.849,0,0,0,2.266-.294,77.355,77.355,0,0,1,12.637-1.077A73.34,73.34,0,0,1-1825.238-466.862Zm37.33-5.306c-.81-.35-1.068-.7-6.191-8.4-2.948-4.4-5.509-8.107-5.711-8.218a5.085,5.085,0,0,0-1.493-.184c-.94,0-1.2-.074-1.566-.461a1.382,1.382,0,0,1,.019-2.064c.442-.443.553-.461,2.1-.387,2.8.129,2.524-.167,8.734,9.121l5.306,7.96,1-.663a3.5,3.5,0,0,0,.995-.829c0-.074-2.229-4.625-4.974-10.1-5.307-10.614-5.288-10.558-6.947-11.166a14.8,14.8,0,0,0-3.243-.258c-2.451,0-2.561-.018-2.985-.46a1.376,1.376,0,0,1,0-2.046l.479-.479,2.985.074c3.649.092,4.514.368,6.228,1.953,1.087.995,1.216,1.216,6.283,11.35,4.5,8.974,5.178,10.448,5.2,11.184,0,1.254-.5,1.954-2.3,3.17a5.07,5.07,0,0,1-2.7,1.2A2.96,2.96,0,0,1-1787.908-472.169Zm-37.8-5.519a3.311,3.311,0,0,1-1.893-3.091,2.842,2.842,0,0,1,.353-1.619,14.279,14.279,0,0,1,2.863-3.9,1.257,1.257,0,0,1,1.3.536,17.774,17.774,0,0,1,2.246,3.272,2.967,2.967,0,0,1,.41,1.711,2.562,2.562,0,0,1-.4,1.573,3.253,3.253,0,0,1-1.643,1.6,2.7,2.7,0,0,1-1.551.3l-.231,0A2.337,2.337,0,0,1-1825.712-477.688Zm.271-28.975h-31.526l-.442-.461a1.353,1.353,0,0,1,0-2.027l.442-.46h10.705c5.878,0,10.687-.037,10.687-.093s-4.017-6.6-8.936-14.538c-5.989-9.674-8.937-14.594-8.937-14.925a1.513,1.513,0,0,1,.461-.94l.442-.461h35.046l.443.461a1.354,1.354,0,0,1,0,2.026l-.443.461h-15.864c-9.4,0-15.846.074-15.809.167s3.906,6.394,8.623,14l8.55,13.838h13.119l8.549-13.838c4.718-7.609,8.6-13.911,8.624-14a22.738,22.738,0,0,0-4.017-.167h-4.073l-.442-.461a1.435,1.435,0,0,1-.461-1.013,1.435,1.435,0,0,1,.461-1.013l.442-.461h11.461l.443.461a1.518,1.518,0,0,1,.461.94q0,.5-8.937,14.925c-4.919,7.96-8.936,14.5-8.936,14.538,0,.056,4.809.093,10.687.093h10.706l.442.46a1.435,1.435,0,0,1,.461,1.013,1.435,1.435,0,0,1-.461,1.013l-.442.461Zm19.624-12.235a1.375,1.375,0,0,1,0-2.045c.424-.443.517-.461,3.244-.461,3.427,0,4.017-.148,5.233-1.382,1.216-1.2,1.382-1.824,1.382-4.956v-2.506h-1.014c-1.234,0-1.934-.535-1.934-1.474a1.435,1.435,0,0,1,.461-1.013c.424-.443.571-.461,2.488-.461,1.934,0,2.064.018,2.505.461l.479.479-.074,4.09-.055,4.109-.682,1.4a7.079,7.079,0,0,1-3.611,3.519c-1.217.59-1.272.59-4.588.644l-3.353.074Z" transform="translate(1860.266 541.565)" fill="#532c0e" stroke="#532c0e" stroke-linejoin="round" stroke-width="2"/>
</svg>
