<svg xmlns="http://www.w3.org/2000/svg" width="68.317" height="96.365" viewBox="0 0 68.317 96.365">
  <g id="Group_1" data-name="Group 1" transform="translate(0.529 0.5)">
    <g id="Group_2" data-name="Group 2">
      <path id="Subtraction_1" data-name="Subtraction 1" d="M-2191.579-437.453h-34.994l-1.117-.557a6.884,6.884,0,0,1-3.783-4.891c-.131-.652-.183-8.909-.183-29.45V-500.86l-3.916-3.411c-2.788-2.441-3.952-3.561-4.017-3.865a1.261,1.261,0,0,1,.7-1.462,24.358,24.358,0,0,1,3.832-.175h3.4v-.835a12.881,12.881,0,0,1,.183-1.862,6.727,6.727,0,0,1,5.316-5.483c.49-.1,3.923-.174,8.348-.174h7.482V-521l.083-9.21h-2.183a10.409,10.409,0,0,1-2.466-.174,1.362,1.362,0,0,1-.5-.68,1.265,1.265,0,0,1,.466-1.531c.2-.153,1.641-.208,5.949-.227,5.464,0,5.693.014,6.133.365a1.181,1.181,0,0,1,.431.831,1.361,1.361,0,0,1-.364,1.014c-.332.382-.457.4-2.667.4h-2.3l-.083,9.21v2.872h7.565c4.468,0,7.942.071,8.448.174a6.881,6.881,0,0,1,4.7,3.69,10.554,10.554,0,0,1,.783,3.83v.626l5.217.069c4.754.069,5.269.106,6.116.436a4.012,4.012,0,0,1,2.359,2.591,5.649,5.649,0,0,1,.285,1.769v27.292a5.219,5.219,0,0,1-1.061,3.548c-1.114,1.112-3.212,1.164-7.134,1.164h-5.813v16.722l-.01,2.13c-.052,11.882-.052,11.882-1.045,13.413l-.146.226a6.742,6.742,0,0,1-3.083,2.594l-.933.4Zm-30.994-69.708c-6.489,0-12.212.033-12.248.071,0,.035,1.1,1.031,2.466,2.192,1.283,1.108,2.606,2.3,2.833,2.559.366.418.366.418.366,6.944V-469h.046c.207.148,2.24,1.451,9.92,1.6,1.033.021,1.946.031,2.79.031a62.1,62.1,0,0,0,9.388-.663h.006c1.295-.162,2.762-.346,4.653-.555,1.663-.184,3.3-.323,4.858-.413h8.666v-23.277c0-3.251.014-3.391.367-3.742a1.179,1.179,0,0,1,.825-.355,1.212,1.212,0,0,1,1.125.9c.121.4.183,3.743.183,9.938v9.382l4.649-.052,1-.012c3.557-.04,4.513-.051,4.927-.371.837-.645.831-1.44.784-7.633v-.083c-.013-1.807-.03-4.055-.03-6.885,0-1.932.01-3.687.018-5.1.037-6.491.053-9.454-.854-10.366a1.232,1.232,0,0,0-.935-.347h-.042c-.425,0-.777-.007-1.077-.007-.422,0-.677,0-.924.008h-.046c-.251,0-.537.01-1.04.01-.447,0-1.019,0-1.749-.013l-4.648-.052-.067,5.136c-.068.925-.15,1.149-.551,1.5a1,1,0,0,1-.675.346.888.888,0,0,1-.224-.032c-.97-.263-1-.37-1.05-3.812l-.05-3.15-9.348-.052c-.86,0-1.716,0-2.542,0-4.156,0-6.867.036-6.907.092-.065.051-.116,4.065-.116,9.138v23.237h16.937a3.02,3.02,0,0,1-.368,2.22,2.851,2.851,0,0,1-2.152,1.087h-30.956a2.885,2.885,0,0,1-2.545-1.792,3.609,3.609,0,0,1-.24-1.516h16.825v-32.5Zm5.456-8.315c-9.594,0-9.726.144-10.582,1.079-.059.064-.121.133-.19.2a4.692,4.692,0,0,0-1.266,3.5v.923h40.377l-.117-1.253a4.53,4.53,0,0,0-2.35-4.038l-.666-.365-16.831-.034-2.24,0h-.432C-2213.5-515.472-2215.475-515.476-2217.117-515.476Z" transform="translate(2239.626 532.818)" fill="#532c0e" stroke="#532c0e" stroke-width="1"/>
    </g>
  </g>
</svg>
