<svg id="rabbit" xmlns="http://www.w3.org/2000/svg" width="18.004" height="21.952" viewBox="0 0 18.004 21.952">
  <path id="Union_6" data-name="Union 6" d="M11.349,21.934c-3.49-.013-3.58-.017-3.983-.107a6.22,6.22,0,0,1-2.161-.9,5.683,5.683,0,0,1-2.337-6.616,5.825,5.825,0,0,1,3.649-3.662,6.181,6.181,0,0,1,2.14-.313,9.79,9.79,0,0,0,1.1-.06.939.939,0,0,0,.48-.54c.021-.09.069-.33.1-.536l.06-.377-.364-.107A9.919,9.919,0,0,1,4.09,3.913c-.322-.656-.3-.982.09-1.209.159-.094.2-.1.712-.077a8.284,8.284,0,0,1,2.9.707,2.763,2.763,0,0,0,.42.159,1.108,1.108,0,0,0-.077-.266A8.936,8.936,0,0,1,7.713.817c0-.4.086-.587.326-.725s.4-.124.759.034a9.967,9.967,0,0,1,4.9,5.7l.227.66.249.03A4.223,4.223,0,0,1,16.6,7.832a4.449,4.449,0,0,1,.9,1.312A5.475,5.475,0,0,1,18,11.713c0,.793-.047.952-.343,1.1-.15.077-.253.086-.978.086a2.692,2.692,0,0,0-1.522.249,2.317,2.317,0,0,0-.772.768c-.223.416-.244.609-.244,2.465v1.707H12.365c-.978,0-1.779,0-1.779-.013s.051-.116.111-.244a2.565,2.565,0,0,0-.077-2.242,3.156,3.156,0,0,0-1.05-1.05,2.991,2.991,0,0,0-1.141-.309.7.7,0,0,0-.635.352.6.6,0,0,0,0,.592.744.744,0,0,0,.66.356,1.279,1.279,0,0,1,0,2.547c-.6.056-.9.489-.66.956a.575.575,0,0,0,.257.257c.163.081.249.086,2.89.086,1.831,0,2.8.017,2.95.047a2.052,2.052,0,0,1,1.321,1c.317.652.266,1.209-.129,1.432l-.167.094ZM2.036,20.6a2.419,2.419,0,0,1-1.269-.7,2.363,2.363,0,0,1-.686-1.188,2.425,2.425,0,0,1,0-1.226,2.478,2.478,0,0,1,.9-1.385,1.838,1.838,0,0,1,.27-.193,2.948,2.948,0,0,1,.051.545,9.174,9.174,0,0,0,.094.926,7.267,7.267,0,0,0,1.222,2.813,1.932,1.932,0,0,1,.279.424.6.6,0,0,1-.3.044A2.7,2.7,0,0,1,2.036,20.6Z" transform="translate(0 0)" fill="#532c0e"/>
</svg>
