<svg id="Component_9_2" data-name="Component 9 – 2" xmlns="http://www.w3.org/2000/svg" width="23.929" height="14.433" viewBox="0 0 23.929 14.433">
  <path id="Union_8" data-name="Union 8" d="M16.862,14.322A1.555,1.555,0,0,1,16,13.139a1.613,1.613,0,0,1,.075-.622c.056-.212.108-.419.112-.456,0-.055-.108-.074-.627-.1a19.384,19.384,0,0,1-3.568-.474c-.4-.1-1.337-.391-1.637-.506-.084-.037-.089.014-.07,1.156l.014,1.193-.122.253a1.628,1.628,0,0,1-.72.728c-.234.124-.243.124-1.239.124-.954,0-1.019,0-1.248-.11a1.722,1.722,0,0,1-.743-.723c-.168-.4-.168-.553.028-1.722A4.835,4.835,0,0,0,6.35,9.686,3.325,3.325,0,0,0,5.135,7.867C4.62,7.434,3.143,6.347,1.651,5.293.959,4.805.328,4.349.258,4.285c-.238-.212-.281-.35-.248-.76C.164,1.715,1.085.385,2.4.072A4.126,4.126,0,0,1,5.6.864,4.315,4.315,0,0,1,6.65,2.484l.079.207L6.5,3.175a5.059,5.059,0,0,0-.664,2.247c.07.253.159.336.748.714A20.785,20.785,0,0,0,13.972,9.11,24.85,24.85,0,0,0,22.033,8.9l1.075-.17.3.161c.491.258.641.635.411,1.022-.094.166-.206.23-1.468.833-.753.359-1.58.728-1.847.82-.435.147-.482.175-.472.272,0,.06.009.4.019.755a2.486,2.486,0,0,1-.07.889,1.67,1.67,0,0,1-.786.843c-.234.106-.3.11-1.183.11S17.072,14.428,16.862,14.322Zm-1.6-6.409c-.023-.028.252-2.707.285-2.749,0-.009.383-.083.842-.17s.86-.157.884-.157a13.6,13.6,0,0,1,.552,1.524c.4,1.2.491,1.533.444,1.566-.028.02-.57.028-1.187.028C16.248,7.955,15.285,7.939,15.258,7.913Zm4.4-.447c-.065-.193-.351-1.054-.631-1.911L18.512,4l.145-.76a5.366,5.366,0,0,1,.178-.76,4.391,4.391,0,0,1,.617.645,11.786,11.786,0,0,1,1.973,3.725,2.8,2.8,0,0,1,.182.7,5.378,5.378,0,0,1-.786.134c-.412.055-.814.106-.9.115a.511.511,0,0,1-.073.008C19.77,7.806,19.752,7.748,19.658,7.466Zm-7.837-.331a4.694,4.694,0,0,1-1.3-.53c0-.028.44-.64.982-1.368.94-1.252,1-1.321,1.089-1.262.051.032.4.244.772.465s.7.428.734.456A5.022,5.022,0,0,1,14,6.3c-.089.741-.168,1.358-.182,1.372a.025.025,0,0,1-.015,0A17.1,17.1,0,0,1,11.821,7.135ZM8.9,5.878a12.4,12.4,0,0,1-1.552-.935,5.089,5.089,0,0,1,.837-1.8,7.245,7.245,0,0,1,.692-.792,6.282,6.282,0,0,1,2.9-1.607c.248-.064.29-.06.262.028-.014.046-.1.488-.2.981a6.851,6.851,0,0,1-.248,1.027c-.042.069-.6.829-1.244,1.685L9.179,6.016Zm5.148-2.638c-.729-.437-.959-.6-.945-.658.014-.041.112-.53.22-1.082l.2-1.008.706.028a6.645,6.645,0,0,1,2.834.677c.584.295.547.157.327,1.266-.1.53-.2.972-.206.976-.023.023-1.992.382-2.09.382A10.552,10.552,0,0,1,14.047,3.239Z" transform="translate(0 0)" fill="#532c0e"/>
</svg>
